<svg width="124" height="133" viewBox="0 0 124 133" fill="none" xmlns="http://www.w3.org/2000/svg">
<g clip-path="url(#clip0_424_4165)">
<path d="M52.3954 16.9938C49.2183 16.9938 46.6623 19.7451 46.6623 23.1649C46.6623 26.5847 49.2183 29.336 52.3954 29.336H56.2175V37.8983C29.3674 40.9581 8.44155 65.4367 8.44155 95.1606H115.46C115.46 65.4367 94.5339 40.9581 67.6838 37.8983V29.336H71.5058C74.6829 29.336 77.2389 26.5847 77.2389 23.1649C77.2389 19.7451 74.6829 16.9938 71.5058 16.9938H61.9506H52.3954ZM6.53051 103.389C3.35341 103.389 0.797394 106.14 0.797394 109.56C0.797394 112.98 3.35341 115.731 6.53051 115.731H117.371C120.548 115.731 123.104 112.98 123.104 109.56C123.104 106.14 120.548 103.389 117.371 103.389H6.53051Z" fill="#588157"/>
</g>
<defs>
<clipPath id="clip0_424_4165">
<rect width="122.306" height="131.649" fill="white" transform="translate(0.797394 0.537659)"/>
</clipPath>
</defs>
</svg>
