<svg width="123" height="105" viewBox="0 0 123 105" fill="none" xmlns="http://www.w3.org/2000/svg">
<g clip-path="url(#clip0_424_4159)">
<path d="M14.4121 7.45294C6.96864 7.45294 0.91687 13.2614 0.91687 20.4055V26.8818H122.374V20.4055C122.374 13.2614 116.322 7.45294 108.879 7.45294H14.4121ZM122.374 46.3107H0.91687V85.1685C0.91687 92.3127 6.96864 98.1211 14.4121 98.1211H108.879C116.322 98.1211 122.374 92.3127 122.374 85.1685V46.3107ZM24.5335 72.2159H38.0288C39.8844 72.2159 41.4026 73.6731 41.4026 75.4541C41.4026 77.2351 39.8844 78.6922 38.0288 78.6922H24.5335C22.6779 78.6922 21.1597 77.2351 21.1597 75.4541C21.1597 73.6731 22.6779 72.2159 24.5335 72.2159ZM48.1502 75.4541C48.1502 73.6731 49.6684 72.2159 51.524 72.2159H78.5145C80.3701 72.2159 81.8883 73.6731 81.8883 75.4541C81.8883 77.2351 80.3701 78.6922 78.5145 78.6922H51.524C49.6684 78.6922 48.1502 77.2351 48.1502 75.4541Z" fill="#588157"/>
</g>
<defs>
<clipPath id="clip0_424_4159">
<rect width="121.457" height="103.621" fill="white" transform="translate(0.91687 0.976624)"/>
</clipPath>
</defs>
</svg>
