<svg width="80" height="102" viewBox="0 0 80 102" fill="none" xmlns="http://www.w3.org/2000/svg">
<g clip-path="url(#clip0_424_4171)">
<path d="M44.938 99.2212C55.6039 86.5476 79.9299 55.831 79.9299 38.5776C79.9299 17.6524 62.0493 0.675293 40.0104 0.675293C17.9715 0.675293 0.0909119 17.6524 0.0909119 38.5776C0.0909119 55.831 24.4168 86.5476 35.0828 99.2212C37.6402 102.242 42.3806 102.242 44.938 99.2212ZM40.0104 25.9435C43.5395 25.9435 46.9241 27.2746 49.4195 29.6439C51.915 32.0133 53.3169 35.2268 53.3169 38.5776C53.3169 41.9283 51.915 45.1419 49.4195 47.5112C46.9241 49.8806 43.5395 51.2117 40.0104 51.2117C36.4813 51.2117 33.0967 49.8806 30.6013 47.5112C28.1058 45.1419 26.7039 41.9283 26.7039 38.5776C26.7039 35.2268 28.1058 32.0133 30.6013 29.6439C33.0967 27.2746 36.4813 25.9435 40.0104 25.9435Z" fill="#588157"/>
</g>
<defs>
<clipPath id="clip0_424_4171">
<rect width="79.839" height="101.073" fill="white" transform="translate(0.0909119 0.675293)"/>
</clipPath>
</defs>
</svg>
