<svg width="102" height="120" viewBox="0 0 102 120" fill="none" xmlns="http://www.w3.org/2000/svg">
<g clip-path="url(#clip0_424_4139)">
<path d="M36.2844 26.549C36.2844 18.3508 42.7594 11.6854 50.7234 11.6854C58.6873 11.6854 65.1623 18.3508 65.1623 26.549V37.6967H36.2844V26.549ZM25.4552 37.6967H11.0162C5.03758 37.6967 0.186996 42.69 0.186996 48.8445V97.1513C0.186996 109.46 9.88817 119.447 21.8454 119.447H79.6013C91.5585 119.447 101.26 109.46 101.26 97.1513V48.8445C101.26 42.69 96.4091 37.6967 90.4305 37.6967H75.9915V26.549C75.9915 12.1731 64.6885 0.537659 50.7234 0.537659C36.7582 0.537659 25.4552 12.1731 25.4552 26.549V37.6967ZM30.8698 48.8445C32.3058 48.8445 33.6831 49.4317 34.6985 50.477C35.7139 51.5223 36.2844 52.9401 36.2844 54.4183C36.2844 55.8966 35.7139 57.3144 34.6985 58.3597C33.6831 59.405 32.3058 59.9922 30.8698 59.9922C29.4337 59.9922 28.0565 59.405 27.0411 58.3597C26.0256 57.3144 25.4552 55.8966 25.4552 54.4183C25.4552 52.9401 26.0256 51.5223 27.0411 50.477C28.0565 49.4317 29.4337 48.8445 30.8698 48.8445ZM65.1623 54.4183C65.1623 52.9401 65.7328 51.5223 66.7482 50.477C67.7637 49.4317 69.1409 48.8445 70.5769 48.8445C72.013 48.8445 73.3902 49.4317 74.4056 50.477C75.4211 51.5223 75.9915 52.9401 75.9915 54.4183C75.9915 55.8966 75.4211 57.3144 74.4056 58.3597C73.3902 59.405 72.013 59.9922 70.5769 59.9922C69.1409 59.9922 67.7637 59.405 66.7482 58.3597C65.7328 57.3144 65.1623 55.8966 65.1623 54.4183Z" fill="#588157"/>
</g>
<defs>
<clipPath id="clip0_424_4139">
<rect width="101.073" height="118.909" fill="white" transform="translate(0.186996 0.537659)"/>
</clipPath>
</defs>
</svg>
